STARTFONT 2.1
FONT -Bitstream-Terminal-Bold-R-Wide--25-180-100-100-C-180-DEC-DECtech
SIZE 18 100 100
FONTBOUNDINGBOX 18 25 0 -5

STARTPROPERTIES 27
FOUNDRY "Bitstream"
FAMILY_NAME "Terminal"
WEIGHT_NAME "Bold"
SLANT "R"
SETWIDTH_NAME "Wide"
ADD_STYLE_NAME ""
PIXEL_SIZE 25
POINT_SIZE 180
RESOLUTION_X 100
RESOLUTION_Y 100
SPACING "C"
AVERAGE_WIDTH 180
CHARSET_REGISTRY "DEC"
CHARSET_ENCODING "DECtech"
CAP_HEIGHT 15
COPYRIGHT "Copyright (c) 1991 Digital Equipment Corporation. All Rights Reserved."
_DEC_PRODUCTINFO "DECterm Fonts V2.2, 11-Nov-1991"
AVG_CAPITAL_WIDTH 180
AVG_LOWERCASE_WIDTH 180
FIGURE_WIDTH 18
FULL_NAME "Terminal Bold Wide"
WEIGHT 10
X_HEIGHT -3
QUAD_WIDTH 18
DEFAULT_CHAR 159
FONT_DESCENT 5
FONT_ASCENT 20
ENDPROPERTIES

CHARS 182

STARTCHAR space
ENCODING 32
SWIDTH 720 0
DWIDTH 18 0
BBX 18 25 0 -5
BITMAP
000000
000000
000000
000000
000000
000000
000000
000000
000000
000000
000000
000000
000000
000000
000000
000000
000000
000000
000000
000000
000000
000000
000000
000000
000000
ENDCHAR

STARTCHAR exclam
ENCODING 33
SWIDTH 720 0
DWIDTH 18 0
BBX 18 25 0 -5
BITMAP
000000
000000
000000
000000
000000
03E000
03E000
03E000
03E000
03E000
03E000
03E000
03E000
03E000
03E000
000000
000000
03E000
07F000
03E000
000000
000000
000000
000000
000000
ENDCHAR

STARTCHAR quotedbl
ENCODING 34
SWIDTH 720 0
DWIDTH 18 0
BBX 18 25 0 -5
BITMAP
000000
000000
000000
000000
0E3800
0E3800
0E3800
0E3800
0E3800
0E3800
0E3800
000000
000000
000000
000000
000000
000000
000000
000000
000000
000000
000000
000000
000000
000000
ENDCHAR

STARTCHAR numbersign
ENCODING 35
SWIDTH 720 0
DWIDTH 18 0
BBX 18 25 0 -5
BITMAP
000000
000000
000000
000000
000000
0E3800
0E3800
0E3800
0E3800
0E3800
7FFF00
7FFF00
0E3800
0E3800
0E3800
7FFF00
7FFF00
0E3800
0E3800
0E3800
0E3800
0E3800
0E3800
000000
000000
ENDCHAR

STARTCHAR dollar
ENCODING 36
SWIDTH 720 0
DWIDTH 18 0
BBX 18 25 0 -5
BITMAP
000000
000000
000000
000000
03C000
03C000
03C000
0FF700
3C3F00
781F00
780F00
7F0000
3FF800
0FFE00
00FF00
000F00
780F00
781F00
7FFE00
77F800
03C000
03C000
03C000
000000
000000
ENDCHAR

STARTCHAR percent
ENCODING 37
SWIDTH 720 0
DWIDTH 18 0
BBX 18 25 0 -5
BITMAP
000000
000000
000000
000000
000000
3F8000
F1E000
F1E000
F1E000
F1E000
3F8700
001F00
00F800
03C000
0F0000
7CFE00
73C780
03C780
03C780
03C780
00FE00
000000
000000
000000
000000
ENDCHAR

STARTCHAR ampersand
ENCODING 38
SWIDTH 720 0
DWIDTH 18 0
BBX 18 25 0 -5
BITMAP
000000
000000
000000
000000
000000
000000
07B000
0FF000
1C7000
1C3000
1E0000
0F0000
078000
1FC300
3DE700
78FF00
787C00
7C3C00
3FFF00
0FCF00
000000
000000
000000
000000
000000
ENDCHAR

STARTCHAR quoteright
ENCODING 39
SWIDTH 720 0
DWIDTH 18 0
BBX 18 25 0 -5
BITMAP
000000
000000
000000
000000
00F800
01F000
01E000
03C000
038000
070000
000000
000000
000000
000000
000000
000000
000000
000000
000000
000000
000000
000000
000000
000000
000000
ENDCHAR

STARTCHAR parenleft
ENCODING 40
SWIDTH 720 0
DWIDTH 18 0
BBX 18 25 0 -5
BITMAP
000000
000000
000000
000000
003800
00F000
03E000
03C000
078000
078000
0F0000
0F0000
0F0000
0F0000
0F0000
0F0000
0F0000
078000
078000
03C000
03E000
00F000
003800
000000
000000
ENDCHAR

STARTCHAR parenright
ENCODING 41
SWIDTH 720 0
DWIDTH 18 0
BBX 18 25 0 -5
BITMAP
000000
000000
000000
000000
0E0000
078000
03E000
01E000
00F000
00F000
007800
007800
007800
007800
007800
007800
007800
00F000
00F000
01E000
03E000
078000
0E0000
000000
000000
ENDCHAR

STARTCHAR asterisk
ENCODING 42
SWIDTH 720 0
DWIDTH 18 0
BBX 18 25 0 -5
BITMAP
000000
000000
000000
000000
000000
000000
000000
000000
01C000
01C000
39CE00
3DDE00
0FF800
03E000
0F7800
1E3C00
3C1E00
000000
000000
000000
000000
000000
000000
000000
000000
ENDCHAR

STARTCHAR plus
ENCODING 43
SWIDTH 720 0
DWIDTH 18 0
BBX 18 25 0 -5
BITMAP
000000
000000
000000
000000
000000
000000
000000
000000
000000
03C000
03C000
03C000
03C000
7FFE00
7FFE00
03C000
03C000
03C000
03C000
000000
000000
000000
000000
000000
000000
ENDCHAR

STARTCHAR comma
ENCODING 44
SWIDTH 720 0
DWIDTH 18 0
BBX 18 25 0 -5
BITMAP
000000
000000
000000
000000
000000
000000
000000
000000
000000
000000
000000
000000
000000
000000
000000
000000
000000
03E000
03E000
07C000
0F8000
0E0000
000000
000000
000000
ENDCHAR

STARTCHAR minus
ENCODING 45
SWIDTH 720 0
DWIDTH 18 0
BBX 18 25 0 -5
BITMAP
000000
000000
000000
000000
000000
000000
000000
000000
000000
000000
000000
000000
000000
3FFE00
3FFE00
000000
000000
000000
000000
000000
000000
000000
000000
000000
000000
ENDCHAR

STARTCHAR period
ENCODING 46
SWIDTH 720 0
DWIDTH 18 0
BBX 18 25 0 -5
BITMAP
000000
000000
000000
000000
000000
000000
000000
000000
000000
000000
000000
000000
000000
000000
000000
000000
03E000
07F000
07F000
03E000
000000
000000
000000
000000
000000
ENDCHAR

STARTCHAR slash
ENCODING 47
SWIDTH 720 0
DWIDTH 18 0
BBX 18 25 0 -5
BITMAP
000000
000000
000000
000000
001F00
001E00
003E00
007C00
007C00
00F800
01F000
01E000
03E000
07C000
078000
0F8000
1F0000
1E0000
3E0000
3C0000
7C0000
000000
000000
000000
000000
ENDCHAR

STARTCHAR zero
ENCODING 48
SWIDTH 720 0
DWIDTH 18 0
BBX 18 25 0 -5
BITMAP
000000
000000
000000
000000
000000
03E000
0FF800
1E3C00
3C1E00
3C1E00
780F00
780F00
780F00
780F00
780F00
3C1E00
3C1E00
1E3C00
0FF800
03E000
000000
000000
000000
000000
000000
ENDCHAR

STARTCHAR one
ENCODING 49
SWIDTH 720 0
DWIDTH 18 0
BBX 18 25 0 -5
BITMAP
000000
000000
000000
000000
000000
00E000
03E000
0FE000
3DE000
31E000
01E000
01E000
01E000
01E000
01E000
01E000
01E000
01E000
1FFE00
1FFE00
000000
000000
000000
000000
000000
ENDCHAR

STARTCHAR two
ENCODING 50
SWIDTH 720 0
DWIDTH 18 0
BBX 18 25 0 -5
BITMAP
000000
000000
000000
000000
000000
0FF000
3FFC00
783E00
701E00
701E00
003C00
007800
00F000
01E000
078000
0F0000
1E0000
3C0E00
7FFE00
7FFE00
000000
000000
000000
000000
000000
ENDCHAR

STARTCHAR three
ENCODING 51
SWIDTH 720 0
DWIDTH 18 0
BBX 18 25 0 -5
BITMAP
000000
000000
000000
000000
000000
1FF000
7FFC00
783E00
001E00
001E00
003C00
07F000
07FC00
003C00
001E00
001E00
001E00
783C00
7FFC00
1FF000
000000
000000
000000
000000
000000
ENDCHAR

STARTCHAR four
ENCODING 52
SWIDTH 720 0
DWIDTH 18 0
BBX 18 25 0 -5
BITMAP
000000
000000
000000
000000
000000
003800
00F800
01F800
03B800
073800
0E3800
1C3800
383800
703800
7FFF00
7FFF00
003800
003800
01FE00
01FE00
000000
000000
000000
000000
000000
ENDCHAR

STARTCHAR five
ENCODING 53
SWIDTH 720 0
DWIDTH 18 0
BBX 18 25 0 -5
BITMAP
000000
000000
000000
000000
000000
3FFE00
3FFE00
380000
380000
380000
380000
3FF000
3FFC00
003E00
001E00
001E00
001E00
783E00
7FFC00
0FF000
000000
000000
000000
000000
000000
ENDCHAR

STARTCHAR six
ENCODING 54
SWIDTH 720 0
DWIDTH 18 0
BBX 18 25 0 -5
BITMAP
000000
000000
000000
000000
000000
007C00
03FC00
0F8000
1E0000
3C0000
3C0000
7FF800
7FFE00
7C1E00
780F00
780F00
780F00
3C1E00
3FFE00
0FF800
000000
000000
000000
000000
000000
ENDCHAR

STARTCHAR seven
ENCODING 55
SWIDTH 720 0
DWIDTH 18 0
BBX 18 25 0 -5
BITMAP
000000
000000
000000
000000
000000
7FFF00
7FFF00
700F00
701E00
001E00
003C00
003C00
007800
007800
00F000
00F000
00E000
01E000
03C000
03C000
000000
000000
000000
000000
000000
ENDCHAR

STARTCHAR eight
ENCODING 56
SWIDTH 720 0
DWIDTH 18 0
BBX 18 25 0 -5
BITMAP
000000
000000
000000
000000
000000
07F000
1FFC00
3C1E00
780F00
780F00
3C1E00
0FF800
3FFE00
3C1E00
780F00
780F00
780F00
3C1E00
3FFE00
0FF800
000000
000000
000000
000000
000000
ENDCHAR

STARTCHAR nine
ENCODING 57
SWIDTH 720 0
DWIDTH 18 0
BBX 18 25 0 -5
BITMAP
000000
000000
000000
000000
000000
0FF800
3FFE00
3C1E00
780F00
780F00
780F00
7C1F00
3FFF00
0FFF00
001E00
001E00
003C00
007C00
3FF000
3FC000
000000
000000
000000
000000
000000
ENDCHAR

STARTCHAR colon
ENCODING 58
SWIDTH 720 0
DWIDTH 18 0
BBX 18 25 0 -5
BITMAP
000000
000000
000000
000000
000000
000000
000000
000000
000000
000000
03E000
07F000
03E000
000000
000000
000000
000000
03E000
07F000
03E000
000000
000000
000000
000000
000000
ENDCHAR

STARTCHAR semicolon
ENCODING 59
SWIDTH 720 0
DWIDTH 18 0
BBX 18 25 0 -5
BITMAP
000000
000000
000000
000000
000000
000000
000000
000000
000000
000000
03E000
07F000
03E000
000000
000000
000000
000000
03E000
03E000
07C000
0F8000
0E0000
000000
000000
000000
ENDCHAR

STARTCHAR less
ENCODING 60
SWIDTH 720 0
DWIDTH 18 0
BBX 18 25 0 -5
BITMAP
000000
000000
000000
000000
000000
000000
000000
000000
001C00
007C00
01F800
07E000
1F8000
3E0000
1F0000
0FC000
03E000
00F800
007C00
001C00
000000
000000
000000
000000
000000
ENDCHAR

STARTCHAR equal
ENCODING 61
SWIDTH 720 0
DWIDTH 18 0
BBX 18 25 0 -5
BITMAP
000000
000000
000000
000000
000000
000000
000000
000000
000000
000000
000000
3FFE00
3FFE00
000000
000000
000000
3FFE00
3FFE00
000000
000000
000000
000000
000000
000000
000000
ENDCHAR

STARTCHAR greater
ENCODING 62
SWIDTH 720 0
DWIDTH 18 0
BBX 18 25 0 -5
BITMAP
000000
000000
000000
000000
000000
000000
000000
000000
1C0000
1F0000
0FC000
03F000
00FC00
003E00
007C00
01F800
03E000
0F8000
1F0000
1C0000
000000
000000
000000
000000
000000
ENDCHAR

STARTCHAR question
ENCODING 63
SWIDTH 720 0
DWIDTH 18 0
BBX 18 25 0 -5
BITMAP
000000
000000
000000
000000
000000
0FF800
3FFE00
7C1F00
781F00
003F00
007E00
01F800
03E000
03C000
03C000
000000
000000
03E000
07F000
03E000
000000
000000
000000
000000
000000
ENDCHAR

STARTCHAR at
ENCODING 64
SWIDTH 720 0
DWIDTH 18 0
BBX 18 25 0 -5
BITMAP
000000
000000
000000
000000
000000
07F000
3FFC00
381C00
700E00
700E00
700E00
71FE00
73FE00
739E00
739E00
739E00
73FF00
71F700
700000
700000
380F00
3FFF00
07F800
000000
000000
ENDCHAR

STARTCHAR A
ENCODING 65
SWIDTH 720 0
DWIDTH 18 0
BBX 18 25 0 -5
BITMAP
000000
000000
000000
000000
000000
018000
07E000
07E000
0FF000
1E7800
1C3800
3C3C00
3C3C00
381C00
7FFE00
7FFE00
781E00
781E00
781E00
781E00
000000
000000
000000
000000
000000
ENDCHAR

STARTCHAR B
ENCODING 66
SWIDTH 720 0
DWIDTH 18 0
BBX 18 25 0 -5
BITMAP
000000
000000
000000
000000
000000
7FF000
7FFC00
783E00
781E00
781E00
783E00
7FFC00
7FF800
783C00
781E00
781E00
781E00
783E00
7FFC00
7FF000
000000
000000
000000
000000
000000
ENDCHAR

STARTCHAR C
ENCODING 67
SWIDTH 720 0
DWIDTH 18 0
BBX 18 25 0 -5
BITMAP
000000
000000
000000
000000
000000
07F700
1FFF00
3C0F00
380F00
780000
780000
780000
780000
780000
780000
780000
380000
3C0F00
1FFF00
07F800
000000
000000
000000
000000
000000
ENDCHAR

STARTCHAR D
ENCODING 68
SWIDTH 720 0
DWIDTH 18 0
BBX 18 25 0 -5
BITMAP
000000
000000
000000
000000
000000
7FF000
7FFC00
783E00
781E00
781F00
780F00
780F00
780F00
780F00
780F00
781F00
781E00
783E00
7FFC00
7FF000
000000
000000
000000
000000
000000
ENDCHAR

STARTCHAR E
ENCODING 69
SWIDTH 720 0
DWIDTH 18 0
BBX 18 25 0 -5
BITMAP
000000
000000
000000
000000
000000
3FFE00
3FFE00
3C0000
3C0000
3C0000
3C0000
3FFC00
3FFC00
3C0000
3C0000
3C0000
3C0000
3C0000
3FFE00
3FFE00
000000
000000
000000
000000
000000
ENDCHAR

STARTCHAR F
ENCODING 70
SWIDTH 720 0
DWIDTH 18 0
BBX 18 25 0 -5
BITMAP
000000
000000
000000
000000
000000
3FFE00
3FFE00
3C0000
3C0000
3C0000
3C0000
3FF800
3FF800
3C0000
3C0000
3C0000
3C0000
3C0000
3C0000
3C0000
000000
000000
000000
000000
000000
ENDCHAR

STARTCHAR G
ENCODING 71
SWIDTH 720 0
DWIDTH 18 0
BBX 18 25 0 -5
BITMAP
000000
000000
000000
000000
000000
07F700
1FFF00
3C0F00
380700
780700
780000
780000
787F00
787F00
780F00
780F00
380F00
3C1F00
1FFF00
07F800
000000
000000
000000
000000
000000
ENDCHAR

STARTCHAR H
ENCODING 72
SWIDTH 720 0
DWIDTH 18 0
BBX 18 25 0 -5
BITMAP
000000
000000
000000
000000
000000
780F00
780F00
780F00
780F00
780F00
780F00
7FFF00
7FFF00
780F00
780F00
780F00
780F00
780F00
780F00
780F00
000000
000000
000000
000000
000000
ENDCHAR

STARTCHAR I
ENCODING 73
SWIDTH 720 0
DWIDTH 18 0
BBX 18 25 0 -5
BITMAP
000000
000000
000000
000000
000000
7FFE00
7FFE00
03C000
03C000
03C000
03C000
03C000
03C000
03C000
03C000
03C000
03C000
03C000
7FFE00
7FFE00
000000
000000
000000
000000
000000
ENDCHAR

STARTCHAR J
ENCODING 74
SWIDTH 720 0
DWIDTH 18 0
BBX 18 25 0 -5
BITMAP
000000
000000
000000
000000
000000
0FFF00
0FFF00
007800
007800
007800
007800
007800
007800
007800
787800
787800
787800
387000
3FF000
0FC000
000000
000000
000000
000000
000000
ENDCHAR

STARTCHAR K
ENCODING 75
SWIDTH 720 0
DWIDTH 18 0
BBX 18 25 0 -5
BITMAP
000000
000000
000000
000000
000000
781E00
783E00
787800
78F000
79E000
7BC000
7F8000
7F8000
7FC000
7BE000
79F800
787C00
783E00
781F00
780F00
000000
000000
000000
000000
000000
ENDCHAR

STARTCHAR L
ENCODING 76
SWIDTH 720 0
DWIDTH 18 0
BBX 18 25 0 -5
BITMAP
000000
000000
000000
000000
000000
0F0000
0F0000
0F0000
0F0000
0F0000
0F0000
0F0000
0F0000
0F0000
0F0000
0F0000
0F0000
0F0000
0FFF00
0FFF00
000000
000000
000000
000000
000000
ENDCHAR

STARTCHAR M
ENCODING 77
SWIDTH 720 0
DWIDTH 18 0
BBX 18 25 0 -5
BITMAP
000000
000000
000000
000000
000000
780F00
780F00
7C1F00
7C1F00
7E3F00
7E3F00
7F7F00
7BEF00
7BEF00
79CF00
79CF00
79CF00
780F00
780F00
780F00
000000
000000
000000
000000
000000
ENDCHAR

STARTCHAR N
ENCODING 78
SWIDTH 720 0
DWIDTH 18 0
BBX 18 25 0 -5
BITMAP
000000
000000
000000
000000
000000
7C0F00
7C0F00
7E0F00
7F0F00
7F0F00
7F8F00
7B8F00
79CF00
78EF00
78FF00
787F00
783F00
783F00
781F00
781F00
000000
000000
000000
000000
000000
ENDCHAR

STARTCHAR O
ENCODING 79
SWIDTH 720 0
DWIDTH 18 0
BBX 18 25 0 -5
BITMAP
000000
000000
000000
000000
000000
07F000
3FFE00
3C1E00
780F00
780F00
780F00
780F00
780F00
780F00
780F00
780F00
780F00
3C1E00
3FFE00
07F000
000000
000000
000000
000000
000000
ENDCHAR

STARTCHAR P
ENCODING 80
SWIDTH 720 0
DWIDTH 18 0
BBX 18 25 0 -5
BITMAP
000000
000000
000000
000000
000000
7FF800
7FFE00
781F00
780F00
780F00
780F00
781F00
7FFE00
7FF800
780000
780000
780000
780000
780000
780000
000000
000000
000000
000000
000000
ENDCHAR

STARTCHAR Q
ENCODING 81
SWIDTH 720 0
DWIDTH 18 0
BBX 18 25 0 -5
BITMAP
000000
000000
000000
000000
000000
07F000
3FFE00
3C1E00
780F00
780F00
780F00
780F00
780F00
780F00
780F00
780F00
780F00
3C1E00
3FFE00
07F000
0E0000
1FE700
3BFF00
30FE00
000000
ENDCHAR

STARTCHAR R
ENCODING 82
SWIDTH 720 0
DWIDTH 18 0
BBX 18 25 0 -5
BITMAP
000000
000000
000000
000000
000000
7FF800
7FFE00
781F00
780F00
780F00
780F00
781E00
7FFC00
7FF000
78F000
787800
783800
783C00
781F00
781F00
000000
000000
000000
000000
000000
ENDCHAR

STARTCHAR S
ENCODING 83
SWIDTH 720 0
DWIDTH 18 0
BBX 18 25 0 -5
BITMAP
000000
000000
000000
000000
000000
0FEF00
3FFF00
7C0F00
780F00
780000
7C0000
3FC000
0FF800
01FE00
003E00
000F00
780F00
781F00
7FFE00
77F800
000000
000000
000000
000000
000000
ENDCHAR

STARTCHAR T
ENCODING 84
SWIDTH 720 0
DWIDTH 18 0
BBX 18 25 0 -5
BITMAP
000000
000000
000000
000000
000000
3FFF00
3FFF00
01E000
01E000
01E000
01E000
01E000
01E000
01E000
01E000
01E000
01E000
01E000
01E000
01E000
000000
000000
000000
000000
000000
ENDCHAR

STARTCHAR U
ENCODING 85
SWIDTH 720 0
DWIDTH 18 0
BBX 18 25 0 -5
BITMAP
000000
000000
000000
000000
000000
780F00
780F00
780F00
780F00
780F00
780F00
780F00
780F00
780F00
780F00
780F00
780F00
7C1F00
3FFE00
0FF800
000000
000000
000000
000000
000000
ENDCHAR

STARTCHAR V
ENCODING 86
SWIDTH 720 0
DWIDTH 18 0
BBX 18 25 0 -5
BITMAP
000000
000000
000000
000000
000000
780F00
780F00
780F00
780F00
780F00
780F00
780F00
780F00
380E00
3C1E00
3C1E00
1E3C00
0FF800
07F000
01C000
000000
000000
000000
000000
000000
ENDCHAR

STARTCHAR W
ENCODING 87
SWIDTH 720 0
DWIDTH 18 0
BBX 18 25 0 -5
BITMAP
000000
000000
000000
000000
000000
780F00
780F00
780F00
780F00
780F00
79CF00
79CF00
79CF00
7BEF00
7FFF00
7E3F00
7C1F00
3C1E00
380E00
380E00
000000
000000
000000
000000
000000
ENDCHAR

STARTCHAR X
ENCODING 88
SWIDTH 720 0
DWIDTH 18 0
BBX 18 25 0 -5
BITMAP
000000
000000
000000
000000
000000
780F00
7C1F00
3C1E00
1E3C00
0F7800
07F000
07F000
03E000
07F000
0FF800
0F7800
1E3C00
3E3E00
7C1F00
7C1F00
000000
000000
000000
000000
000000
ENDCHAR

STARTCHAR Y
ENCODING 89
SWIDTH 720 0
DWIDTH 18 0
BBX 18 25 0 -5
BITMAP
000000
000000
000000
000000
000000
7C0F80
7C0F80
3C0F00
3E1F00
1E1E00
0F3C00
07F800
03F000
01E000
01E000
01E000
01E000
01E000
01E000
01E000
000000
000000
000000
000000
000000
ENDCHAR

STARTCHAR Z
ENCODING 90
SWIDTH 720 0
DWIDTH 18 0
BBX 18 25 0 -5
BITMAP
000000
000000
000000
000000
000000
7FFE00
7FFE00
703C00
707800
70F000
01E000
01E000
03C000
078000
0F0000
0F0700
1E0700
3C0700
7FFF00
7FFF00
000000
000000
000000
000000
000000
ENDCHAR

STARTCHAR bracketleft
ENCODING 91
SWIDTH 720 0
DWIDTH 18 0
BBX 18 25 0 -5
BITMAP
000000
000000
000000
000000
07F000
07F000
078000
078000
078000
078000
078000
078000
078000
078000
078000
078000
078000
078000
078000
078000
078000
07F000
07F000
000000
000000
ENDCHAR

STARTCHAR backslash
ENCODING 92
SWIDTH 720 0
DWIDTH 18 0
BBX 18 25 0 -5
BITMAP
000000
000000
000000
000000
7C0000
3C0000
3E0000
1F0000
1F0000
0F8000
07C000
03C000
03E000
01F000
00F000
00F800
007C00
003C00
003E00
001E00
001F00
000000
000000
000000
000000
ENDCHAR

STARTCHAR bracketright
ENCODING 93
SWIDTH 720 0
DWIDTH 18 0
BBX 18 25 0 -5
BITMAP
000000
000000
000000
000000
0FE000
0FE000
01E000
01E000
01E000
01E000
01E000
01E000
01E000
01E000
01E000
01E000
01E000
01E000
01E000
01E000
01E000
0FE000
0FE000
000000
000000
ENDCHAR

STARTCHAR asciicircum
ENCODING 94
SWIDTH 720 0
DWIDTH 18 0
BBX 18 25 0 -5
BITMAP
000000
000000
000000
000000
000000
000000
000000
000000
000000
01C000
03E000
0FF800
1E3C00
3C1E00
380E00
000000
000000
000000
000000
000000
000000
000000
000000
000000
000000
ENDCHAR

STARTCHAR ldblank
ENCODING 95
SWIDTH 720 0
DWIDTH 18 0
BBX 18 25 0 -5
BITMAP
000000
000000
000000
000000
000000
000000
000000
000000
000000
000000
000000
000000
000000
000000
000000
000000
000000
000000
000000
000000
000000
000000
000000
000000
000000
ENDCHAR

STARTCHAR diamond
ENCODING 96
SWIDTH 720 0
DWIDTH 18 0
BBX 18 25 0 -5
BITMAP
000000
000000
000000
000000
018000
03C000
07E000
0FF000
1FF800
3FFC00
7FFE00
FFFF00
7FFE00
3FFC00
1FF800
0FF000
07E000
03C000
018000
000000
000000
000000
000000
000000
000000
ENDCHAR

STARTCHAR checkerboard
ENCODING 97
SWIDTH 720 0
DWIDTH 18 0
BBX 18 25 0 -5
BITMAP
AAAA80
555540
AAAA80
555540
AAAA80
555540
AAAA80
555540
AAAA80
555540
AAAA80
555540
AAAA80
555540
AAAA80
555540
AAAA80
555540
AAAA80
555540
AAAA80
555540
AAAA80
555540
AAAA80
ENDCHAR

STARTCHAR HT
ENCODING 98
SWIDTH 720 0
DWIDTH 18 0
BBX 18 25 0 -5
BITMAP
000000
000000
000000
79E000
79E000
79E000
7FE000
7FE000
79E000
79E000
79E000
000000
000000
03FF00
03FF00
007800
007800
007800
007800
007800
007800
000000
000000
000000
000000
ENDCHAR

STARTCHAR FF
ENCODING 99
SWIDTH 720 0
DWIDTH 18 0
BBX 18 25 0 -5
BITMAP
000000
000000
000000
3F8000
3F8000
3C0000
3F8000
3F8000
3C0000
3C0000
3C0000
000000
000000
01FC00
01FC00
01E000
01FC00
01FC00
01E000
01E000
01E000
000000
000000
000000
000000
ENDCHAR

STARTCHAR CR
ENCODING 100
SWIDTH 720 0
DWIDTH 18 0
BBX 18 25 0 -5
BITMAP
000000
000000
000000
1FC000
3FE000
7CE000
780000
780000
7CE000
3FE000
1F8000
000000
000000
07F800
07FC00
079C00
079C00
07F800
07F800
07BC00
079C00
000000
000000
000000
000000
ENDCHAR

STARTCHAR LF
ENCODING 101
SWIDTH 720 0
DWIDTH 18 0
BBX 18 25 0 -5
BITMAP
000000
000000
000000
3C0000
3C0000
3C0000
3C0000
3C0000
3C0000
3FC000
3FC000
000000
000000
01FC00
01FC00
01E000
01FC00
01FC00
01E000
01E000
01E000
000000
000000
000000
000000
ENDCHAR

STARTCHAR degree
ENCODING 102
SWIDTH 720 0
DWIDTH 18 0
BBX 18 25 0 -5
BITMAP
000000
000000
000000
000000
000000
1FF000
3EF800
7C7C00
783C00
783C00
7C7C00
3EF800
1FF000
000000
000000
000000
000000
000000
000000
000000
000000
000000
000000
000000
000000
ENDCHAR

STARTCHAR plusminus
ENCODING 103
SWIDTH 720 0
DWIDTH 18 0
BBX 18 25 0 -5
BITMAP
000000
000000
000000
000000
000000
000000
03C000
03C000
03C000
03C000
7FFE00
7FFE00
03C000
03C000
03C000
03C000
000000
000000
7FFE00
7FFE00
000000
000000
000000
000000
000000
ENDCHAR

STARTCHAR NL
ENCODING 104
SWIDTH 720 0
DWIDTH 18 0
BBX 18 25 0 -5
BITMAP
000000
000000
000000
386000
3C6000
3E6000
3F6000
37E000
33E000
31E000
30E000
000000
000000
01E000
01E000
01E000
01E000
01E000
01E000
01FC00
01FC00
000000
000000
000000
000000
ENDCHAR

STARTCHAR VT
ENCODING 105
SWIDTH 720 0
DWIDTH 18 0
BBX 18 25 0 -5
BITMAP
000000
000000
000000
787000
787000
38E000
3CE000
1DC000
1FC000
0F8000
070000
000000
000000
03FF00
03FF00
007800
007800
007800
007800
007800
007800
000000
000000
000000
000000
ENDCHAR

STARTCHAR ldcornsqlr
ENCODING 106
SWIDTH 720 0
DWIDTH 18 0
BBX 18 25 0 -5
BITMAP
01E000
01E000
01E000
01E000
01E000
01E000
01E000
01E000
01E000
01E000
01E000
01E000
FFE000
FFE000
000000
000000
000000
000000
000000
000000
000000
000000
000000
000000
000000
ENDCHAR

STARTCHAR ldcornsqur
ENCODING 107
SWIDTH 720 0
DWIDTH 18 0
BBX 18 25 0 -5
BITMAP
000000
000000
000000
000000
000000
000000
000000
000000
000000
000000
000000
000000
FFE000
FFE000
01E000
01E000
01E000
01E000
01E000
01E000
01E000
01E000
01E000
01E000
01E000
ENDCHAR

STARTCHAR ldcornsqul
ENCODING 108
SWIDTH 720 0
DWIDTH 18 0
BBX 18 25 0 -5
BITMAP
000000
000000
000000
000000
000000
000000
000000
000000
000000
000000
000000
000000
01FFC0
01FFC0
01E000
01E000
01E000
01E000
01E000
01E000
01E000
01E000
01E000
01E000
01E000
ENDCHAR

STARTCHAR ldcornsqll
ENCODING 109
SWIDTH 720 0
DWIDTH 18 0
BBX 18 25 0 -5
BITMAP
01E000
01E000
01E000
01E000
01E000
01E000
01E000
01E000
01E000
01E000
01E000
01E000
01FFC0
01FFC0
000000
000000
000000
000000
000000
000000
000000
000000
000000
000000
000000
ENDCHAR

STARTCHAR ldcross
ENCODING 110
SWIDTH 720 0
DWIDTH 18 0
BBX 18 25 0 -5
BITMAP
01E000
01E000
01E000
01E000
01E000
01E000
01E000
01E000
01E000
01E000
01E000
01E000
FFFFC0
FFFFC0
01E000
01E000
01E000
01E000
01E000
01E000
01E000
01E000
01E000
01E000
01E000
ENDCHAR

STARTCHAR ldscan1
ENCODING 111
SWIDTH 720 0
DWIDTH 18 0
BBX 18 25 0 -5
BITMAP
000000
FFFFC0
FFFFC0
000000
000000
000000
000000
000000
000000
000000
000000
000000
000000
000000
000000
000000
000000
000000
000000
000000
000000
000000
000000
000000
000000
ENDCHAR

STARTCHAR ldscan3
ENCODING 112
SWIDTH 720 0
DWIDTH 18 0
BBX 18 25 0 -5
BITMAP
000000
000000
000000
000000
000000
000000
000000
FFFFC0
FFFFC0
000000
000000
000000
000000
000000
000000
000000
000000
000000
000000
000000
000000
000000
000000
000000
000000
ENDCHAR

STARTCHAR ldhorizontal
ENCODING 113
SWIDTH 720 0
DWIDTH 18 0
BBX 18 25 0 -5
BITMAP
000000
000000
000000
000000
000000
000000
000000
000000
000000
000000
000000
000000
FFFFC0
FFFFC0
000000
000000
000000
000000
000000
000000
000000
000000
000000
000000
000000
ENDCHAR

STARTCHAR ldscan7
ENCODING 114
SWIDTH 720 0
DWIDTH 18 0
BBX 18 25 0 -5
BITMAP
000000
000000
000000
000000
000000
000000
000000
000000
000000
000000
000000
000000
000000
000000
000000
000000
000000
000000
FFFFC0
FFFFC0
000000
000000
000000
000000
000000
ENDCHAR

STARTCHAR ldscan9
ENCODING 115
SWIDTH 720 0
DWIDTH 18 0
BBX 18 25 0 -5
BITMAP
000000
000000
000000
000000
000000
000000
000000
000000
000000
000000
000000
000000
000000
000000
000000
000000
000000
000000
000000
000000
000000
000000
000000
FFFFC0
FFFFC0
ENDCHAR

STARTCHAR ldteelft
ENCODING 116
SWIDTH 720 0
DWIDTH 18 0
BBX 18 25 0 -5
BITMAP
01E000
01E000
01E000
01E000
01E000
01E000
01E000
01E000
01E000
01E000
01E000
01E000
01FFC0
01FFC0
01E000
01E000
01E000
01E000
01E000
01E000
01E000
01E000
01E000
01E000
01E000
ENDCHAR

STARTCHAR ldteert
ENCODING 117
SWIDTH 720 0
DWIDTH 18 0
BBX 18 25 0 -5
BITMAP
01E000
01E000
01E000
01E000
01E000
01E000
01E000
01E000
01E000
01E000
01E000
01E000
FFE000
FFE000
01E000
01E000
01E000
01E000
01E000
01E000
01E000
01E000
01E000
01E000
01E000
ENDCHAR

STARTCHAR ldteebt
ENCODING 118
SWIDTH 720 0
DWIDTH 18 0
BBX 18 25 0 -5
BITMAP
01E000
01E000
01E000
01E000
01E000
01E000
01E000
01E000
01E000
01E000
01E000
01E000
FFFFC0
FFFFC0
000000
000000
000000
000000
000000
000000
000000
000000
000000
000000
000000
ENDCHAR

STARTCHAR ldteetp
ENCODING 119
SWIDTH 720 0
DWIDTH 18 0
BBX 18 25 0 -5
BITMAP
000000
000000
000000
000000
000000
000000
000000
000000
000000
000000
000000
000000
FFFFC0
FFFFC0
01E000
01E000
01E000
01E000
01E000
01E000
01E000
01E000
01E000
01E000
01E000
ENDCHAR

STARTCHAR ldvertical
ENCODING 120
SWIDTH 720 0
DWIDTH 18 0
BBX 18 25 0 -5
BITMAP
01E000
01E000
01E000
01E000
01E000
01E000
01E000
01E000
01E000
01E000
01E000
01E000
01E000
01E000
01E000
01E000
01E000
01E000
01E000
01E000
01E000
01E000
01E000
01E000
01E000
ENDCHAR

STARTCHAR lessequal
ENCODING 121
SWIDTH 720 0
DWIDTH 18 0
BBX 18 25 0 -5
BITMAP
000000
000000
000000
000000
000000
000000
000E00
007E00
03FE00
1FE000
7E0000
7E0000
1FE000
03FE00
007E00
000E00
000000
7FFE00
7FFE00
7FFE00
000000
000000
000000
000000
000000
ENDCHAR

STARTCHAR greaterequal
ENCODING 122
SWIDTH 720 0
DWIDTH 18 0
BBX 18 25 0 -5
BITMAP
000000
000000
000000
000000
000000
000000
700000
7E0000
7FC000
07F800
007E00
007E00
07F800
7FC000
7E0000
700000
000000
7FFE00
7FFE00
7FFE00
000000
000000
000000
000000
000000
ENDCHAR

STARTCHAR pi
ENCODING 123
SWIDTH 720 0
DWIDTH 18 0
BBX 18 25 0 -5
BITMAP
000000
000000
000000
000000
000000
000000
000000
000000
7FFF00
7FFF00
1E3C00
1E3C00
1E3C00
3E3C00
3C7800
3C7800
7C7800
78F000
78F000
78F000
000000
000000
000000
000000
000000
ENDCHAR

STARTCHAR notequal
ENCODING 124
SWIDTH 720 0
DWIDTH 18 0
BBX 18 25 0 -5
BITMAP
000000
000000
000000
000000
000000
000000
000000
000000
003800
007800
007000
7FFE00
7FFE00
01C000
038000
070000
7FFE00
7FFE00
0E0000
1C0000
1C0000
000000
000000
000000
000000
ENDCHAR

STARTCHAR sterling
ENCODING 125
SWIDTH 720 0
DWIDTH 18 0
BBX 18 25 0 -5
BITMAP
000000
000000
000000
000000
000000
03F800
0FFE00
1F9E00
1F0E00
1F0000
0F8000
7FF800
7FF800
03C000
03C000
07C000
0F8600
7FFE00
7FFE00
78F800
000000
000000
000000
000000
000000
ENDCHAR

STARTCHAR periodcentered
ENCODING 126
SWIDTH 720 0
DWIDTH 18 0
BBX 18 25 0 -5
BITMAP
000000
000000
000000
000000
000000
000000
000000
000000
000000
000000
000000
01C000
03E000
03E000
03E000
01C000
000000
000000
000000
000000
000000
000000
000000
000000
000000
ENDCHAR

STARTCHAR Error
ENCODING 159
SWIDTH 720 0
DWIDTH 18 0
BBX 18 25 0 -5
BITMAP
0FFC00
3FFF00
7FFF80
FC1F80
F80F80
F80F80
FC0F80
FE0000
7F0000
3F8000
1FC000
0FE000
07E000
07E000
07E000
07E000
000000
000000
000000
03C000
07E000
0FF000
0FF000
07E000
03C000
ENDCHAR

STARTCHAR space
ENCODING 160
SWIDTH 720 0
DWIDTH 18 0
BBX 18 25 0 -5
BITMAP
000000
000000
000000
000000
000000
000000
000000
000000
000000
000000
000000
000000
000000
000000
000000
000000
000000
000000
000000
000000
000000
000000
000000
000000
000000
ENDCHAR

STARTCHAR ldradicalbt
ENCODING 161
SWIDTH 720 0
DWIDTH 18 0
BBX 18 25 0 -5
BITMAP
03C000
03C000
03C000
03C000
03C000
03C000
03C000
03C000
43C000
E3C000
F3C000
FBC000
FFC000
BFC000
1FC000
0FC000
07C000
03C000
01C000
000000
000000
000000
000000
000000
000000
ENDCHAR

STARTCHAR ldradicaltp
ENCODING 162
SWIDTH 720 0
DWIDTH 18 0
BBX 18 25 0 -5
BITMAP
000000
000000
000000
000000
000000
000000
000000
000000
000000
000000
000000
000000
03FF80
03FF80
03C000
03C000
03C000
03C000
03C000
03C000
03C000
03C000
03C000
03C000
03C000
ENDCHAR

STARTCHAR ldhorizontal
ENCODING 163
SWIDTH 720 0
DWIDTH 18 0
BBX 18 25 0 -5
BITMAP
000000
000000
000000
000000
000000
000000
000000
000000
000000
000000
000000
000000
FFFFC0
FFFFC0
000000
000000
000000
000000
000000
000000
000000
000000
000000
000000
000000
ENDCHAR

STARTCHAR ldintegraltp
ENCODING 164
SWIDTH 720 0
DWIDTH 18 0
BBX 18 25 0 -5
BITMAP
000000
000000
007E00
01FE00
01FE00
03C000
03C000
03C000
03C000
03C000
03C000
03C000
03C000
03C000
03C000
03C000
03C000
03C000
03C000
03C000
03C000
03C000
03C000
03C000
03C000
ENDCHAR

STARTCHAR ldintegralbt
ENCODING 165
SWIDTH 720 0
DWIDTH 18 0
BBX 18 25 0 -5
BITMAP
03C000
03C000
03C000
03C000
03C000
03C000
03C000
03C000
03C000
03C000
03C000
03C000
03C000
03C000
03C000
03C000
03C000
03C000
03C000
03C000
03C000
FF8000
FF8000
FE0000
000000
ENDCHAR

STARTCHAR ldvertical
ENCODING 166
SWIDTH 720 0
DWIDTH 18 0
BBX 18 25 0 -5
BITMAP
03C000
03C000
03C000
03C000
03C000
03C000
03C000
03C000
03C000
03C000
03C000
03C000
03C000
03C000
03C000
03C000
03C000
03C000
03C000
03C000
03C000
03C000
03C000
03C000
03C000
ENDCHAR

STARTCHAR ldbracketlfttp
ENCODING 167
SWIDTH 720 0
DWIDTH 18 0
BBX 18 25 0 -5
BITMAP
000000
000000
03FE00
03FE00
03FE00
03C000
03C000
03C000
03C000
03C000
03C000
03C000
03C000
03C000
03C000
03C000
03C000
03C000
03C000
03C000
03C000
03C000
03C000
03C000
03C000
ENDCHAR

STARTCHAR ldbracketlftbt
ENCODING 168
SWIDTH 720 0
DWIDTH 18 0
BBX 18 25 0 -5
BITMAP
03C000
03C000
03C000
03C000
03C000
03C000
03C000
03C000
03C000
03C000
03C000
03C000
03C000
03C000
03C000
03C000
03C000
03C000
03C000
03C000
03C000
03FE00
03FE00
03FE00
000000
ENDCHAR

STARTCHAR ldbracketrttp
ENCODING 169
SWIDTH 720 0
DWIDTH 18 0
BBX 18 25 0 -5
BITMAP
000000
000000
7FC000
7FC000
7FC000
03C000
03C000
03C000
03C000
03C000
03C000
03C000
03C000
03C000
03C000
03C000
03C000
03C000
03C000
03C000
03C000
03C000
03C000
03C000
03C000
ENDCHAR

STARTCHAR ldbracketrtbt
ENCODING 170
SWIDTH 720 0
DWIDTH 18 0
BBX 18 25 0 -5
BITMAP
03C000
03C000
03C000
03C000
03C000
03C000
03C000
03C000
03C000
03C000
03C000
03C000
03C000
03C000
03C000
03C000
03C000
03C000
03C000
03C000
03C000
7FC000
7FC000
7FC000
000000
ENDCHAR

STARTCHAR ldbracelfttp
ENCODING 171
SWIDTH 720 0
DWIDTH 18 0
BBX 18 25 0 -5
BITMAP
000000
000000
007E00
01FE00
01FE00
03E000
03C000
03C000
03C000
03C000
03C000
03C000
03C000
03C000
03C000
03C000
03C000
03C000
03C000
03C000
03C000
03C000
03C000
03C000
03C000
ENDCHAR

STARTCHAR ldbracelftbt
ENCODING 172
SWIDTH 720 0
DWIDTH 18 0
BBX 18 25 0 -5
BITMAP
03C000
03C000
03C000
03C000
03C000
03C000
03C000
03C000
03C000
03C000
03C000
03C000
03C000
03C000
03C000
03C000
03C000
03C000
03C000
03C000
03E000
01FE00
01FE00
007E00
000000
ENDCHAR

STARTCHAR ldbracerttp
ENCODING 173
SWIDTH 720 0
DWIDTH 18 0
BBX 18 25 0 -5
BITMAP
000000
000000
7E0000
7F8000
7F8000
078000
03C000
03C000
03C000
03C000
03C000
03C000
03C000
03C000
03C000
03C000
03C000
03C000
03C000
03C000
03C000
03C000
03C000
03C000
03C000
ENDCHAR

STARTCHAR ldbracertbt
ENCODING 174
SWIDTH 720 0
DWIDTH 18 0
BBX 18 25 0 -5
BITMAP
03C000
03C000
03C000
03C000
03C000
03C000
03C000
03C000
03C000
03C000
03C000
03C000
03C000
03C000
03C000
03C000
03C000
03C000
03C000
03C000
078000
7F8000
7F8000
7E0000
000000
ENDCHAR

STARTCHAR ldbracelftmid
ENCODING 175
SWIDTH 720 0
DWIDTH 18 0
BBX 18 25 0 -5
BITMAP
03C000
03C000
03C000
03C000
03C000
03C000
03C000
03C000
03C000
03C000
03C000
038000
078000
7E0000
7E0000
078000
03C000
03C000
03C000
03C000
03C000
03C000
03C000
03C000
03C000
ENDCHAR

STARTCHAR ldbracertmid
ENCODING 176
SWIDTH 720 0
DWIDTH 18 0
BBX 18 25 0 -5
BITMAP
03C000
03C000
03C000
03C000
03C000
03C000
03C000
03C000
03C000
03C000
03C000
01C000
01E000
007E00
007E00
01E000
01C000
03C000
03C000
03C000
03C000
03C000
03C000
03C000
03C000
ENDCHAR

STARTCHAR ldsigmalfttp
ENCODING 177
SWIDTH 720 0
DWIDTH 18 0
BBX 18 25 0 -5
BITMAP
000000
000000
000000
000000
000000
000000
000000
000000
000000
000000
000000
000000
03FFC0
03FFC0
03C000
01C000
00E000
00F000
007800
003800
003C00
001E00
000E00
000F00
000780
ENDCHAR

STARTCHAR ldsigmalftbt
ENCODING 178
SWIDTH 720 0
DWIDTH 18 0
BBX 18 25 0 -5
BITMAP
000180
000380
000780
000F00
000E00
001C00
003C00
003800
007800
00F000
01E000
01C000
01FFC0
01FFC0
000000
000000
000000
000000
000000
000000
000000
000000
000000
000000
000000
ENDCHAR

STARTCHAR ldbackslash
ENCODING 179
SWIDTH 720 0
DWIDTH 18 0
BBX 18 25 0 -5
BITMAP
800000
C00000
C00000
E00000
F00000
700000
380000
1C0000
1C0000
0E0000
070000
070000
038000
01C000
01C000
00E000
00F000
007000
003800
003C00
001C00
000E00
000F00
000780
0003C0
ENDCHAR

STARTCHAR ldslash
ENCODING 180
SWIDTH 720 0
DWIDTH 18 0
BBX 18 25 0 -5
BITMAP
0001C0
0003C0
000380
000780
000700
000E00
001E00
003C00
003800
007800
007000
00E000
01E000
03C000
038000
078000
0F0000
0E0000
1E0000
3C0000
380000
700000
F00000
E00000
C00000
ENDCHAR

STARTCHAR ldsigmarttp
ENCODING 181
SWIDTH 720 0
DWIDTH 18 0
BBX 18 25 0 -5
BITMAP
000000
000000
000000
000000
000000
000000
000000
000000
000000
000000
000000
000000
FFFF00
FFFF00
000700
000700
000700
000000
000000
000000
000000
000000
000000
000000
000000
ENDCHAR

STARTCHAR ldsigmartbt
ENCODING 182
SWIDTH 720 0
DWIDTH 18 0
BBX 18 25 0 -5
BITMAP
000000
000000
000000
000000
000000
000000
000000
000000
000700
000700
000700
000700
FFFF00
FFFF00
000000
000000
000000
000000
000000
000000
000000
000000
000000
000000
000000
ENDCHAR

STARTCHAR ldsigmamid
ENCODING 183
SWIDTH 720 0
DWIDTH 18 0
BBX 18 25 0 -5
BITMAP
800000
C00000
E00000
F00000
700000
780000
3C0000
1C0000
1E0000
0F0000
078000
038000
038000
038000
078000
0F0000
1E0000
1C0000
3C0000
780000
700000
F00000
E00000
C00000
800000
ENDCHAR

STARTCHAR lessequal
ENCODING 188
SWIDTH 720 0
DWIDTH 18 0
BBX 18 25 0 -5
BITMAP
000000
000000
000000
000000
000000
000000
000E00
007E00
03FE00
1FE000
7E0000
7E0000
1FE000
03FE00
007E00
000E00
000000
7FFE00
7FFE00
7FFE00
000000
000000
000000
000000
000000
ENDCHAR

STARTCHAR notequal
ENCODING 189
SWIDTH 720 0
DWIDTH 18 0
BBX 18 25 0 -5
BITMAP
000000
000000
000000
000000
000000
000000
000000
000000
003800
007800
007000
7FFE00
7FFE00
01C000
038000
070000
7FFE00
7FFE00
0E0000
1C0000
1C0000
000000
000000
000000
000000
ENDCHAR

STARTCHAR greaterequal
ENCODING 190
SWIDTH 720 0
DWIDTH 18 0
BBX 18 25 0 -5
BITMAP
000000
000000
000000
000000
000000
000000
700000
7E0000
7FC000
07F800
007E00
007E00
07F800
7FC000
7E0000
700000
000000
7FFE00
7FFE00
7FFE00
000000
000000
000000
000000
000000
ENDCHAR

STARTCHAR integral
ENCODING 191
SWIDTH 720 0
DWIDTH 18 0
BBX 18 25 0 -5
BITMAP
000000
007C00
01FE00
01C600
03C600
03C000
03C000
03C000
03C000
03C000
03C000
03C000
03C000
03C000
03C000
03C000
03C000
03C000
03C000
03C000
03C000
63C000
638000
7F8000
3E0000
ENDCHAR

STARTCHAR therefore
ENCODING 192
SWIDTH 720 0
DWIDTH 18 0
BBX 18 25 0 -5
BITMAP
000000
000000
000000
000000
000000
000000
000000
000000
000000
000000
03E000
07F000
07F000
03E000
000000
000000
7C3E00
FE7F00
FE7F00
7C3E00
000000
000000
000000
000000
000000
ENDCHAR

STARTCHAR proportional
ENCODING 193
SWIDTH 720 0
DWIDTH 18 0
BBX 18 25 0 -5
BITMAP
000000
000000
000000
000000
000000
000000
000000
000000
1F1E00
3FFE00
79F000
79F000
70E000
70E000
70F000
79F000
39F800
1FBE00
1F1E00
000000
000000
000000
000000
000000
000000
ENDCHAR

STARTCHAR infinity
ENCODING 194
SWIDTH 720 0
DWIDTH 18 0
BBX 18 25 0 -5
BITMAP
000000
000000
000000
000000
000000
000000
000000
000000
3E7800
7FFE00
F3CF00
E38700
E38700
E18700
E1C700
E1C700
F3EE00
3E7E00
3E7C00
000000
000000
000000
000000
000000
000000
ENDCHAR

STARTCHAR divide
ENCODING 195
SWIDTH 720 0
DWIDTH 18 0
BBX 18 25 0 -5
BITMAP
000000
000000
000000
000000
000000
000000
038000
07C000
07C000
038000
000000
000000
7FFE00
7FFE00
000000
000000
038000
07C000
07C000
038000
000000
000000
000000
000000
000000
ENDCHAR

STARTCHAR Delta
ENCODING 196
SWIDTH 720 0
DWIDTH 18 0
BBX 18 25 0 -5
BITMAP
000000
000000
000000
000000
000000
01C000
03E000
03E000
07F000
0F7800
0F7800
1E3C00
1E3C00
3C1E00
3C1E00
780F00
780700
700700
7FFF00
7FFF00
000000
000000
000000
000000
000000
ENDCHAR

STARTCHAR gradient
ENCODING 197
SWIDTH 720 0
DWIDTH 18 0
BBX 18 25 0 -5
BITMAP
000000
000000
000000
000000
000000
7FFF00
7FFF00
7FFF00
780F00
780F00
3C1E00
3C1E00
1E3C00
1E3C00
0F7800
0F7800
07F000
03E000
03E000
01C000
000000
000000
000000
000000
000000
ENDCHAR

STARTCHAR Phi
ENCODING 198
SWIDTH 720 0
DWIDTH 18 0
BBX 18 25 0 -5
BITMAP
000000
000000
000000
000000
000000
1FF800
1FF800
03C000
0FF000
3FFC00
73CE00
63C600
63C600
73CE00
3FFC00
1FF800
03C000
03C000
1FF800
1FF800
000000
000000
000000
000000
000000
ENDCHAR

STARTCHAR Gamma
ENCODING 199
SWIDTH 720 0
DWIDTH 18 0
BBX 18 25 0 -5
BITMAP
000000
000000
000000
000000
000000
3FFE00
3FFE00
0F0E00
0F0E00
0F0E00
0F0E00
0F0000
0F0000
0F0000
0F0000
0F0000
0F0000
0F0000
3FE000
3FE000
000000
000000
000000
000000
000000
ENDCHAR

STARTCHAR similar
ENCODING 200
SWIDTH 720 0
DWIDTH 18 0
BBX 18 25 0 -5
BITMAP
000000
000000
000000
000000
000000
000000
000000
000000
000000
000000
1E0600
3F0600
7F8E00
71FE00
60FC00
607800
000000
000000
000000
000000
000000
000000
000000
000000
000000
ENDCHAR

STARTCHAR approxequal
ENCODING 201
SWIDTH 720 0
DWIDTH 18 0
BBX 18 25 0 -5
BITMAP
000000
000000
000000
000000
000000
000000
000000
000000
000000
1C0600
3F0600
7F9E00
63FC00
60F800
000000
000000
000000
7FFE00
7FFE00
000000
000000
000000
000000
000000
000000
ENDCHAR

STARTCHAR Theta
ENCODING 202
SWIDTH 720 0
DWIDTH 18 0
BBX 18 25 0 -5
BITMAP
000000
000000
000000
000000
000000
07F000
1FF800
3C3C00
381C00
781E00
799E00
799E00
799E00
799E00
799E00
781E00
381C00
3C3C00
1FF800
07F000
000000
000000
000000
000000
000000
ENDCHAR

STARTCHAR multiply
ENCODING 203
SWIDTH 720 0
DWIDTH 18 0
BBX 18 25 0 -5
BITMAP
000000
000000
000000
000000
000000
000000
000000
000000
781E00
3C3C00
1E7800
0FF000
07E000
0FF000
1E7800
3C3C00
781E00
000000
000000
000000
000000
000000
000000
000000
000000
ENDCHAR

STARTCHAR Lambda
ENCODING 204
SWIDTH 720 0
DWIDTH 18 0
BBX 18 25 0 -5
BITMAP
000000
000000
000000
000000
000000
03C000
07E000
07E000
0FF000
0E7000
1E7800
1E7800
3C3C00
3C3C00
3C3C00
7C3E00
781E00
781E00
781E00
781E00
000000
000000
000000
000000
000000
ENDCHAR

STARTCHAR arrowdblboth
ENCODING 205
SWIDTH 720 0
DWIDTH 18 0
BBX 18 25 0 -5
BITMAP
000000
000000
000000
000000
000000
000000
0C3000
1C3800
381C00
7FFE00
FFFF00
FFFF00
E00700
FFFF00
7FFE00
7FFE00
381C00
1C3800
0C3000
000000
000000
000000
000000
000000
000000
ENDCHAR

STARTCHAR arrowdblright
ENCODING 206
SWIDTH 720 0
DWIDTH 18 0
BBX 18 25 0 -5
BITMAP
000000
000000
000000
000000
000000
000000
01C000
00E000
007000
FFF800
FFFC00
FFFE00
000E00
FFFE00
FFFC00
FFF800
007000
00E000
01C000
000000
000000
000000
000000
000000
000000
ENDCHAR

STARTCHAR equivalence
ENCODING 207
SWIDTH 720 0
DWIDTH 18 0
BBX 18 25 0 -5
BITMAP
000000
000000
000000
000000
000000
000000
000000
000000
7FFE00
7FFE00
000000
000000
7FFE00
7FFE00
000000
000000
7FFE00
7FFE00
000000
000000
000000
000000
000000
000000
000000
ENDCHAR

STARTCHAR Pi
ENCODING 208
SWIDTH 720 0
DWIDTH 18 0
BBX 18 25 0 -5
BITMAP
000000
000000
000000
000000
000000
7FFE00
7FFE00
1E7800
1E7800
1E7800
1E7800
1E7800
1E7800
1E7800
1E7800
1E7800
1E7800
1E7800
1E7800
1E7800
000000
000000
000000
000000
000000
ENDCHAR

STARTCHAR Psi
ENCODING 209
SWIDTH 720 0
DWIDTH 18 0
BBX 18 25 0 -5
BITMAP
000000
000000
000000
000000
000000
1FF800
1FF800
03C000
73CE00
73CE00
73CE00
73CE00
73CE00
7BDE00
3FFC00
1FF800
03C000
03C000
1FF800
1FF800
000000
000000
000000
000000
000000
ENDCHAR

STARTCHAR Sigma
ENCODING 211
SWIDTH 720 0
DWIDTH 18 0
BBX 18 25 0 -5
BITMAP
000000
000000
000000
000000
000000
7FFE00
7FFE00
7C0E00
3E0E00
1F0000
0F8000
07C000
03C000
078000
0F0000
1E0E00
3C0E00
780E00
7FFE00
7FFE00
000000
000000
000000
000000
000000
ENDCHAR

STARTCHAR radical
ENCODING 214
SWIDTH 720 0
DWIDTH 18 0
BBX 18 25 0 -5
BITMAP
000000
000000
000000
000F00
000F00
000F00
001E00
001E00
001E00
F81E00
F83C00
FC3C00
3C3C00
3E3C00
1E7800
1F7800
0F7800
0FF800
07F000
07F000
03F000
03E000
01E000
000000
000000
ENDCHAR

STARTCHAR Omega
ENCODING 215
SWIDTH 720 0
DWIDTH 18 0
BBX 18 25 0 -5
BITMAP
000000
000000
000000
000000
000000
07E000
1FF800
3E7C00
3C3C00
781E00
781E00
781E00
781E00
781E00
3C3C00
1C3800
0E7000
066000
3E7C00
3E7C00
000000
000000
000000
000000
000000
ENDCHAR

STARTCHAR Xi
ENCODING 216
SWIDTH 720 0
DWIDTH 18 0
BBX 18 25 0 -5
BITMAP
000000
000000
000000
000000
000000
7FFE00
7FFE00
781E00
781E00
000000
1C3800
1FF800
1FF800
1FF800
1C3800
000000
781E00
781E00
7FFE00
7FFE00
000000
000000
000000
000000
000000
ENDCHAR

STARTCHAR Upsilon1
ENCODING 217
SWIDTH 720 0
DWIDTH 18 0
BBX 18 25 0 -5
BITMAP
000000
000000
000000
000000
000000
700600
780E00
7C1E00
3E3C00
1E7800
0F7000
0FE000
07C000
03C000
03C000
03C000
03C000
03C000
1FF800
1FF800
000000
000000
000000
000000
000000
ENDCHAR

STARTCHAR propersubset
ENCODING 218
SWIDTH 720 0
DWIDTH 18 0
BBX 18 25 0 -5
BITMAP
000000
000000
000000
000000
000000
07FE00
1FFE00
3FFE00
3C0000
780000
780000
780000
780000
780000
780000
780000
3C0000
3FFE00
1FFE00
07FE00
000000
000000
000000
000000
000000
ENDCHAR

STARTCHAR propersuperset
ENCODING 219
SWIDTH 720 0
DWIDTH 18 0
BBX 18 25 0 -5
BITMAP
000000
000000
000000
000000
000000
7FE000
7FF800
7FFC00
003C00
001E00
001E00
001E00
001E00
001E00
001E00
001E00
003C00
7FFC00
7FF800
7FE000
000000
000000
000000
000000
000000
ENDCHAR

STARTCHAR intersection
ENCODING 220
SWIDTH 720 0
DWIDTH 18 0
BBX 18 25 0 -5
BITMAP
000000
000000
000000
000000
000000
07E000
1FF800
1FF800
3C3C00
381C00
781E00
700E00
700E00
700E00
700E00
700E00
700E00
700E00
700E00
700E00
000000
000000
000000
000000
000000
ENDCHAR

STARTCHAR union
ENCODING 221
SWIDTH 720 0
DWIDTH 18 0
BBX 18 25 0 -5
BITMAP
000000
000000
000000
000000
000000
700E00
700E00
700E00
700E00
700E00
700E00
700E00
700E00
700E00
781E00
381C00
3C3C00
1FF800
1FF800
07E000
000000
000000
000000
000000
000000
ENDCHAR

STARTCHAR logicaland
ENCODING 222
SWIDTH 720 0
DWIDTH 18 0
BBX 18 25 0 -5
BITMAP
000000
000000
000000
000000
000000
000000
000000
03C000
07E000
07E000
0FF000
1E7800
1E7800
3C3C00
3C3C00
7C3E00
781E00
F81F00
F81F00
000000
000000
000000
000000
000000
000000
ENDCHAR

STARTCHAR logicalor
ENCODING 223
SWIDTH 720 0
DWIDTH 18 0
BBX 18 25 0 -5
BITMAP
000000
000000
000000
000000
000000
000000
000000
F81F00
F81F00
781E00
7C3E00
3C3C00
3C3C00
1E7800
1E7800
0FF000
07E000
07E000
03C000
000000
000000
000000
000000
000000
000000
ENDCHAR

STARTCHAR logicalnot
ENCODING 224
SWIDTH 720 0
DWIDTH 18 0
BBX 18 25 0 -5
BITMAP
000000
000000
000000
000000
000000
000000
000000
000000
000000
000000
7FFC00
7FFC00
003C00
003C00
003C00
000000
000000
000000
000000
000000
000000
000000
000000
000000
000000
ENDCHAR

STARTCHAR alpha
ENCODING 225
SWIDTH 720 0
DWIDTH 18 0
BBX 18 25 0 -5
BITMAP
000000
000000
000000
000000
000000
000000
000000
000000
07C600
1FFE00
3CFC00
3C7C00
787800
787800
787800
78F800
78F800
3FFE00
3F9E00
0F0E00
000000
000000
000000
000000
000000
ENDCHAR

STARTCHAR beta
ENCODING 226
SWIDTH 720 0
DWIDTH 18 0
BBX 18 25 0 -5
BITMAP
000000
000000
000000
01F000
07FC00
0FFC00
0F1E00
1E1E00
1E1E00
1E1E00
3E3C00
3FF000
3FFC00
3C3E00
7C1E00
7C1E00
7C3E00
7FFC00
7FFC00
71F000
F00000
F00000
F00000
F00000
F00000
ENDCHAR

STARTCHAR chi
ENCODING 227
SWIDTH 720 0
DWIDTH 18 0
BBX 18 25 0 -5
BITMAP
000000
000000
000000
000000
000000
000000
000000
000000
1E0E00
1E0E00
1F1E00
0F3E00
073C00
07F800
03F000
03F000
07C000
1FE000
1FE000
3CF000
78F000
F87800
F07800
C07800
000000
ENDCHAR

STARTCHAR delta
ENCODING 228
SWIDTH 720 0
DWIDTH 18 0
BBX 18 25 0 -5
BITMAP
000000
000000
000000
03F800
0FF800
1FF800
1E0000
1F0000
0FC000
03E000
0FF800
1FFC00
3C3E00
781E00
781E00
781E00
7C3E00
3FFC00
3FF800
0FE000
000000
000000
000000
000000
000000
ENDCHAR

STARTCHAR epsilon
ENCODING 229
SWIDTH 720 0
DWIDTH 18 0
BBX 18 25 0 -5
BITMAP
000000
000000
000000
000000
000000
000000
000000
000000
03FE00
0FFC00
1F0000
1E0000
3C0000
3FFC00
3FF800
3C0000
3C0000
3F0000
1FF800
0FF000
000000
000000
000000
000000
000000
ENDCHAR

STARTCHAR phi
ENCODING 230
SWIDTH 720 0
DWIDTH 18 0
BBX 18 25 0 -5
BITMAP
000000
000000
000000
006000
006000
006000
006000
006000
07F800
1FFE00
3CCE00
3CC700
78C700
78C700
78C700
78CF00
78CF00
3CDE00
1FFC00
0FF000
018000
018000
018000
018000
018000
ENDCHAR

STARTCHAR gamma
ENCODING 231
SWIDTH 720 0
DWIDTH 18 0
BBX 18 25 0 -5
BITMAP
000000
000000
000000
000000
000000
000000
000000
000000
F80F00
7C0F00
3C1E00
3E1E00
1E3C00
1F3C00
0F7800
07F800
07F000
03E000
03E000
03C000
0F8000
1F8000
3F0000
1E0000
000000
ENDCHAR

STARTCHAR eta
ENCODING 232
SWIDTH 720 0
DWIDTH 18 0
BBX 18 25 0 -5
BITMAP
000000
000000
000000
000000
000000
000000
000000
000000
7CF800
7DFC00
1F1E00
1F1E00
1E1E00
3E3E00
3E3E00
3C3C00
3C3C00
7C7C00
7C7C00
787C00
007800
00F800
00F800
00F800
000000
ENDCHAR

STARTCHAR iota
ENCODING 233
SWIDTH 720 0
DWIDTH 18 0
BBX 18 25 0 -5
BITMAP
000000
000000
000000
000000
000000
000000
000000
000000
1FF000
1FF000
01F000
03E000
03E000
07C000
07C000
0F8000
0F8000
0F9C00
0FF800
07E000
000000
000000
000000
000000
000000
ENDCHAR

STARTCHAR theta
ENCODING 234
SWIDTH 720 0
DWIDTH 18 0
BBX 18 25 0 -5
BITMAP
000000
000000
000000
03F000
07F800
1FFC00
1E3E00
3C1E00
3C1E00
781E00
7FFE00
7FFE00
781E00
781E00
783E00
783C00
7C7C00
3FF800
1FF000
0FC000
000000
000000
000000
000000
000000
ENDCHAR

STARTCHAR kappa
ENCODING 235
SWIDTH 720 0
DWIDTH 18 0
BBX 18 25 0 -5
BITMAP
000000
000000
000000
000000
000000
000000
000000
000000
1F1F00
1F3E00
1E3800
1E7000
3FE000
3FE000
3EF800
3EF800
3E7C00
7C3E00
7C1E00
7C1F00
000000
000000
000000
000000
000000
ENDCHAR

STARTCHAR lambda
ENCODING 236
SWIDTH 720 0
DWIDTH 18 0
BBX 18 25 0 -5
BITMAP
000000
000000
000000
07E000
07E000
01E000
01F000
00F000
00F000
00F000
01F800
01F800
03F800
07FC00
077C00
0F7C00
1E3E00
3E3E00
3C3E00
7C3E00
000000
000000
000000
000000
000000
ENDCHAR

STARTCHAR nu
ENCODING 238
SWIDTH 720 0
DWIDTH 18 0
BBX 18 25 0 -5
BITMAP
000000
000000
000000
000000
000000
000000
000000
000000
7F1E00
7F1E00
1F1E00
1F1E00
1F3C00
1F3C00
1F7800
1F7800
1FF000
1FE000
1FC000
1F0000
000000
000000
000000
000000
000000
ENDCHAR

STARTCHAR partialdiff
ENCODING 239
SWIDTH 720 0
DWIDTH 18 0
BBX 18 25 0 -5
BITMAP
000000
000000
000000
3E0000
3FC000
3FF000
00F800
003C00
003C00
079E00
1FFE00
3FFE00
3E3E00
7C1E00
7C1E00
7C1E00
3E3C00
3FFC00
1FF800
07E000
000000
000000
000000
000000
000000
ENDCHAR

STARTCHAR pi
ENCODING 240
SWIDTH 720 0
DWIDTH 18 0
BBX 18 25 0 -5
BITMAP
000000
000000
000000
000000
000000
000000
000000
000000
7FFF00
7FFF00
1E3C00
1E3C00
1E3C00
3E3C00
3C7800
3C7800
7C7800
78F000
78F000
78F000
000000
000000
000000
000000
000000
ENDCHAR

STARTCHAR psi
ENCODING 241
SWIDTH 720 0
DWIDTH 18 0
BBX 18 25 0 -5
BITMAP
000000
000000
000000
006000
006000
006000
006000
00E000
3CEF00
3CCF00
3CCF00
3CCF00
3DCF00
79CE00
799E00
799E00
799E00
399C00
3FFC00
0FF000
030000
030000
030000
030000
030000
ENDCHAR

STARTCHAR rho
ENCODING 242
SWIDTH 720 0
DWIDTH 18 0
BBX 18 25 0 -5
BITMAP
000000
000000
000000
000000
000000
000000
000000
000000
03F800
0FFC00
1F3E00
1E1E00
3E1E00
3C1E00
3C1E00
3C3E00
783C00
7CF800
7FF000
7FC000
780000
F00000
F00000
F00000
000000
ENDCHAR

STARTCHAR sigma
ENCODING 243
SWIDTH 720 0
DWIDTH 18 0
BBX 18 25 0 -5
BITMAP
000000
000000
000000
000000
000000
000000
000000
000000
03FF80
0FFF80
1F3C00
3E1E00
3E1E00
7C1E00
7C1E00
7C3E00
7C3E00
3E7C00
3FF800
0FE000
000000
000000
000000
000000
000000
ENDCHAR

STARTCHAR tau
ENCODING 244
SWIDTH 720 0
DWIDTH 18 0
BBX 18 25 0 -5
BITMAP
000000
000000
000000
000000
000000
000000
000000
000000
7FFF00
7FFF00
07C000
0F8000
0F8000
0F8000
1F0000
1F0000
1F0000
1F8F00
0FFE00
03F800
000000
000000
000000
000000
000000
ENDCHAR

STARTCHAR florin
ENCODING 246
SWIDTH 720 0
DWIDTH 18 0
BBX 18 25 0 -5
BITMAP
000000
000000
000000
000000
000000
003F00
007F00
00F000
00E000
0FFE00
0FFE00
01E000
01E000
01E000
01E000
03E000
03C000
03C000
03C000
07C000
078000
078000
7F0000
7C0000
000000
ENDCHAR

STARTCHAR omega
ENCODING 247
SWIDTH 720 0
DWIDTH 18 0
BBX 18 25 0 -5
BITMAP
000000
000000
000000
000000
000000
000000
000000
000000
1E0F00
3CEF00
3CEF00
39E700
79E700
79C700
71C600
73CE00
73CE00
7FFC00
7E7C00
3E7800
000000
000000
000000
000000
000000
ENDCHAR

STARTCHAR xi
ENCODING 248
SWIDTH 720 0
DWIDTH 18 0
BBX 18 25 0 -5
BITMAP
000000
000000
000000
000000
3FFF00
3FFF00
01F000
07C000
0F0000
0F0000
0F8000
03F000
0FF000
1F8000
3E0000
3C0000
3E0000
3FF000
1FFE00
07FF00
001F00
000F00
000F00
001E00
00F800
ENDCHAR

STARTCHAR upsilon
ENCODING 249
SWIDTH 720 0
DWIDTH 18 0
BBX 18 25 0 -5
BITMAP
000000
000000
000000
000000
000000
000000
000000
000000
3E1E00
3E1E00
3E1E00
3E1E00
7C3C00
7C3C00
7C3C00
7C7C00
7E7800
3FF800
3FF000
0FC000
000000
000000
000000
000000
000000
ENDCHAR

STARTCHAR zeta
ENCODING 250
SWIDTH 720 0
DWIDTH 18 0
BBX 18 25 0 -5
BITMAP
000000
000000
000000
000000
1FFF00
1FFF00
003C00
007800
01E000
07C000
0F8000
1F8000
1F0000
3E0000
3E0000
3E0000
3F0000
1FFC00
1FFE00
07FF00
001F00
000F00
000F00
001E00
007C00
ENDCHAR

STARTCHAR arrowleft
ENCODING 251
SWIDTH 720 0
DWIDTH 18 0
BBX 18 25 0 -5
BITMAP
000000
000000
000000
000000
000000
000000
000000
000000
018000
078000
1E0000
3E0000
7FFF00
7FFF00
3E0000
1E0000
078000
018000
000000
000000
000000
000000
000000
000000
000000
ENDCHAR

STARTCHAR arrowup
ENCODING 252
SWIDTH 720 0
DWIDTH 18 0
BBX 18 25 0 -5
BITMAP
000000
000000
000000
000000
008000
01C000
03E000
07F000
0FF800
1FFC00
39CE00
31C600
01C000
01C000
01C000
01C000
01C000
01C000
01C000
01C000
01C000
000000
000000
000000
000000
ENDCHAR

STARTCHAR arrowright
ENCODING 253
SWIDTH 720 0
DWIDTH 18 0
BBX 18 25 0 -5
BITMAP
000000
000000
000000
000000
000000
000000
000000
000000
018000
01E000
007800
007C00
FFFE00
FFFE00
007C00
007800
01E000
018000
000000
000000
000000
000000
000000
000000
000000
ENDCHAR

STARTCHAR arrowdown
ENCODING 254
SWIDTH 720 0
DWIDTH 18 0
BBX 18 25 0 -5
BITMAP
000000
000000
000000
000000
01C000
01C000
01C000
01C000
01C000
01C000
01C000
01C000
01C000
31C600
39CE00
1FFC00
0FF800
07F000
03E000
01C000
008000
000000
000000
000000
000000
ENDCHAR
ENDFONT
